<mxfile host="app.diagrams.net" modified="2023-11-15T06:54:13.204Z" agent="Mozilla/5.0 (Windows NT 10.0; Win64; x64) AppleWebKit/537.36 (KHTML, like Gecko) Chrome/119.0.0.0 Safari/537.36" etag="VxqAec-RoFoWgfB31-v3" version="22.1.1" type="device">
  <diagram id="D2u1PGzZoPXd9y3b3kFq" name="Page-1">
    <mxGraphModel dx="1290" dy="522" grid="0" gridSize="10" guides="1" tooltips="1" connect="1" arrows="1" fold="1" page="1" pageScale="1" pageWidth="827" pageHeight="1169" math="0" shadow="0">
      <root>
        <mxCell id="0" />
        <mxCell id="1" parent="0" />
        <mxCell id="8siH3YI83ot3fPD8dc1V-4" value="" style="group" parent="1" vertex="1" connectable="0">
          <mxGeometry x="290" y="45" width="60" height="80" as="geometry" />
        </mxCell>
        <mxCell id="8siH3YI83ot3fPD8dc1V-2" value="" style="ellipse;whiteSpace=wrap;html=1;" parent="8siH3YI83ot3fPD8dc1V-4" vertex="1">
          <mxGeometry width="60" height="80" as="geometry" />
        </mxCell>
        <mxCell id="8siH3YI83ot3fPD8dc1V-3" value="" style="endArrow=none;html=1;rounded=0;entryX=1;entryY=0.621;entryDx=0;entryDy=0;entryPerimeter=0;" parent="8siH3YI83ot3fPD8dc1V-4" target="8siH3YI83ot3fPD8dc1V-2" edge="1">
          <mxGeometry width="50" height="50" relative="1" as="geometry">
            <mxPoint y="50" as="sourcePoint" />
            <mxPoint x="60" y="52" as="targetPoint" />
          </mxGeometry>
        </mxCell>
        <mxCell id="8siH3YI83ot3fPD8dc1V-5" value="RESET" style="text;html=1;strokeColor=none;fillColor=none;align=center;verticalAlign=middle;whiteSpace=wrap;rounded=0;" parent="8siH3YI83ot3fPD8dc1V-4" vertex="1">
          <mxGeometry y="10" width="60" height="30" as="geometry" />
        </mxCell>
        <mxCell id="8siH3YI83ot3fPD8dc1V-6" value="0" style="text;html=1;strokeColor=none;fillColor=none;align=center;verticalAlign=middle;whiteSpace=wrap;rounded=0;" parent="8siH3YI83ot3fPD8dc1V-4" vertex="1">
          <mxGeometry x="10" y="50" width="40" height="20" as="geometry" />
        </mxCell>
        <mxCell id="8siH3YI83ot3fPD8dc1V-7" value="" style="group" parent="1" vertex="1" connectable="0">
          <mxGeometry x="170" y="125" width="60" height="80" as="geometry" />
        </mxCell>
        <mxCell id="8siH3YI83ot3fPD8dc1V-8" value="" style="ellipse;whiteSpace=wrap;html=1;" parent="8siH3YI83ot3fPD8dc1V-7" vertex="1">
          <mxGeometry width="60" height="80" as="geometry" />
        </mxCell>
        <mxCell id="8siH3YI83ot3fPD8dc1V-9" value="" style="endArrow=none;html=1;rounded=0;entryX=1;entryY=0.621;entryDx=0;entryDy=0;entryPerimeter=0;" parent="8siH3YI83ot3fPD8dc1V-7" target="8siH3YI83ot3fPD8dc1V-8" edge="1">
          <mxGeometry width="50" height="50" relative="1" as="geometry">
            <mxPoint y="50" as="sourcePoint" />
            <mxPoint x="60" y="52" as="targetPoint" />
          </mxGeometry>
        </mxCell>
        <mxCell id="8siH3YI83ot3fPD8dc1V-10" value="S0" style="text;html=1;strokeColor=none;fillColor=none;align=center;verticalAlign=middle;whiteSpace=wrap;rounded=0;" parent="8siH3YI83ot3fPD8dc1V-7" vertex="1">
          <mxGeometry y="10" width="60" height="30" as="geometry" />
        </mxCell>
        <mxCell id="8siH3YI83ot3fPD8dc1V-11" value="0" style="text;html=1;strokeColor=none;fillColor=none;align=center;verticalAlign=middle;whiteSpace=wrap;rounded=0;" parent="8siH3YI83ot3fPD8dc1V-7" vertex="1">
          <mxGeometry x="10" y="50" width="40" height="20" as="geometry" />
        </mxCell>
        <mxCell id="8siH3YI83ot3fPD8dc1V-12" value="" style="group" parent="1" vertex="1" connectable="0">
          <mxGeometry x="410" y="125" width="60" height="80" as="geometry" />
        </mxCell>
        <mxCell id="8siH3YI83ot3fPD8dc1V-13" value="" style="ellipse;whiteSpace=wrap;html=1;" parent="8siH3YI83ot3fPD8dc1V-12" vertex="1">
          <mxGeometry width="60" height="80" as="geometry" />
        </mxCell>
        <mxCell id="8siH3YI83ot3fPD8dc1V-14" value="" style="endArrow=none;html=1;rounded=0;entryX=1;entryY=0.621;entryDx=0;entryDy=0;entryPerimeter=0;" parent="8siH3YI83ot3fPD8dc1V-12" target="8siH3YI83ot3fPD8dc1V-13" edge="1">
          <mxGeometry width="50" height="50" relative="1" as="geometry">
            <mxPoint y="50" as="sourcePoint" />
            <mxPoint x="60" y="52" as="targetPoint" />
          </mxGeometry>
        </mxCell>
        <mxCell id="8siH3YI83ot3fPD8dc1V-15" value="S1" style="text;html=1;strokeColor=none;fillColor=none;align=center;verticalAlign=middle;whiteSpace=wrap;rounded=0;" parent="8siH3YI83ot3fPD8dc1V-12" vertex="1">
          <mxGeometry y="10" width="60" height="30" as="geometry" />
        </mxCell>
        <mxCell id="8siH3YI83ot3fPD8dc1V-16" value="0" style="text;html=1;strokeColor=none;fillColor=none;align=center;verticalAlign=middle;whiteSpace=wrap;rounded=0;" parent="8siH3YI83ot3fPD8dc1V-12" vertex="1">
          <mxGeometry x="10" y="50" width="40" height="20" as="geometry" />
        </mxCell>
        <mxCell id="8siH3YI83ot3fPD8dc1V-17" value="" style="group" parent="1" vertex="1" connectable="0">
          <mxGeometry x="170" y="485" width="60" height="80" as="geometry" />
        </mxCell>
        <mxCell id="8siH3YI83ot3fPD8dc1V-18" value="" style="ellipse;whiteSpace=wrap;html=1;" parent="8siH3YI83ot3fPD8dc1V-17" vertex="1">
          <mxGeometry width="60" height="80" as="geometry" />
        </mxCell>
        <mxCell id="8siH3YI83ot3fPD8dc1V-19" value="" style="endArrow=none;html=1;rounded=0;entryX=1;entryY=0.621;entryDx=0;entryDy=0;entryPerimeter=0;" parent="8siH3YI83ot3fPD8dc1V-17" target="8siH3YI83ot3fPD8dc1V-18" edge="1">
          <mxGeometry width="50" height="50" relative="1" as="geometry">
            <mxPoint y="50" as="sourcePoint" />
            <mxPoint x="60" y="52" as="targetPoint" />
          </mxGeometry>
        </mxCell>
        <mxCell id="8siH3YI83ot3fPD8dc1V-20" value="S0000" style="text;html=1;strokeColor=none;fillColor=none;align=center;verticalAlign=middle;whiteSpace=wrap;rounded=0;" parent="8siH3YI83ot3fPD8dc1V-17" vertex="1">
          <mxGeometry y="10" width="60" height="30" as="geometry" />
        </mxCell>
        <mxCell id="8siH3YI83ot3fPD8dc1V-21" value="1" style="text;html=1;strokeColor=none;fillColor=none;align=center;verticalAlign=middle;whiteSpace=wrap;rounded=0;" parent="8siH3YI83ot3fPD8dc1V-17" vertex="1">
          <mxGeometry x="10" y="50" width="40" height="20" as="geometry" />
        </mxCell>
        <mxCell id="8siH3YI83ot3fPD8dc1V-60" value="" style="curved=1;endArrow=classic;html=1;rounded=0;entryX=1;entryY=1;entryDx=0;entryDy=0;exitX=0;exitY=1;exitDx=0;exitDy=0;" parent="8siH3YI83ot3fPD8dc1V-17" source="8siH3YI83ot3fPD8dc1V-21" target="8siH3YI83ot3fPD8dc1V-21" edge="1">
          <mxGeometry width="50" height="50" relative="1" as="geometry">
            <mxPoint x="10" y="80" as="sourcePoint" />
            <mxPoint x="53" y="72" as="targetPoint" />
            <Array as="points">
              <mxPoint y="112" />
              <mxPoint x="33" y="122" />
              <mxPoint x="60" y="112" />
            </Array>
          </mxGeometry>
        </mxCell>
        <mxCell id="8siH3YI83ot3fPD8dc1V-22" value="" style="group" parent="1" vertex="1" connectable="0">
          <mxGeometry x="170" y="365" width="60" height="80" as="geometry" />
        </mxCell>
        <mxCell id="8siH3YI83ot3fPD8dc1V-23" value="" style="ellipse;whiteSpace=wrap;html=1;" parent="8siH3YI83ot3fPD8dc1V-22" vertex="1">
          <mxGeometry width="60" height="80" as="geometry" />
        </mxCell>
        <mxCell id="8siH3YI83ot3fPD8dc1V-24" value="" style="endArrow=none;html=1;rounded=0;entryX=1;entryY=0.621;entryDx=0;entryDy=0;entryPerimeter=0;" parent="8siH3YI83ot3fPD8dc1V-22" target="8siH3YI83ot3fPD8dc1V-23" edge="1">
          <mxGeometry width="50" height="50" relative="1" as="geometry">
            <mxPoint y="50" as="sourcePoint" />
            <mxPoint x="60" y="52" as="targetPoint" />
          </mxGeometry>
        </mxCell>
        <mxCell id="8siH3YI83ot3fPD8dc1V-25" value="S000" style="text;html=1;strokeColor=none;fillColor=none;align=center;verticalAlign=middle;whiteSpace=wrap;rounded=0;" parent="8siH3YI83ot3fPD8dc1V-22" vertex="1">
          <mxGeometry y="10" width="60" height="30" as="geometry" />
        </mxCell>
        <mxCell id="8siH3YI83ot3fPD8dc1V-26" value="0" style="text;html=1;strokeColor=none;fillColor=none;align=center;verticalAlign=middle;whiteSpace=wrap;rounded=0;" parent="8siH3YI83ot3fPD8dc1V-22" vertex="1">
          <mxGeometry x="10" y="50" width="40" height="20" as="geometry" />
        </mxCell>
        <mxCell id="8siH3YI83ot3fPD8dc1V-27" value="" style="group" parent="1" vertex="1" connectable="0">
          <mxGeometry x="170" y="245" width="60" height="80" as="geometry" />
        </mxCell>
        <mxCell id="8siH3YI83ot3fPD8dc1V-28" value="" style="ellipse;whiteSpace=wrap;html=1;" parent="8siH3YI83ot3fPD8dc1V-27" vertex="1">
          <mxGeometry width="60" height="80" as="geometry" />
        </mxCell>
        <mxCell id="8siH3YI83ot3fPD8dc1V-29" value="" style="endArrow=none;html=1;rounded=0;entryX=1;entryY=0.621;entryDx=0;entryDy=0;entryPerimeter=0;" parent="8siH3YI83ot3fPD8dc1V-27" target="8siH3YI83ot3fPD8dc1V-28" edge="1">
          <mxGeometry width="50" height="50" relative="1" as="geometry">
            <mxPoint y="50" as="sourcePoint" />
            <mxPoint x="60" y="52" as="targetPoint" />
          </mxGeometry>
        </mxCell>
        <mxCell id="8siH3YI83ot3fPD8dc1V-30" value="S00" style="text;html=1;strokeColor=none;fillColor=none;align=center;verticalAlign=middle;whiteSpace=wrap;rounded=0;" parent="8siH3YI83ot3fPD8dc1V-27" vertex="1">
          <mxGeometry y="10" width="60" height="30" as="geometry" />
        </mxCell>
        <mxCell id="8siH3YI83ot3fPD8dc1V-31" value="0" style="text;html=1;strokeColor=none;fillColor=none;align=center;verticalAlign=middle;whiteSpace=wrap;rounded=0;" parent="8siH3YI83ot3fPD8dc1V-27" vertex="1">
          <mxGeometry x="10" y="50" width="40" height="20" as="geometry" />
        </mxCell>
        <mxCell id="8siH3YI83ot3fPD8dc1V-33" value="" style="group" parent="1" vertex="1" connectable="0">
          <mxGeometry x="410" y="245" width="60" height="80" as="geometry" />
        </mxCell>
        <mxCell id="8siH3YI83ot3fPD8dc1V-34" value="" style="ellipse;whiteSpace=wrap;html=1;" parent="8siH3YI83ot3fPD8dc1V-33" vertex="1">
          <mxGeometry width="60" height="80" as="geometry" />
        </mxCell>
        <mxCell id="8siH3YI83ot3fPD8dc1V-35" value="" style="endArrow=none;html=1;rounded=0;entryX=1;entryY=0.621;entryDx=0;entryDy=0;entryPerimeter=0;" parent="8siH3YI83ot3fPD8dc1V-33" target="8siH3YI83ot3fPD8dc1V-34" edge="1">
          <mxGeometry width="50" height="50" relative="1" as="geometry">
            <mxPoint y="50" as="sourcePoint" />
            <mxPoint x="60" y="52" as="targetPoint" />
          </mxGeometry>
        </mxCell>
        <mxCell id="8siH3YI83ot3fPD8dc1V-36" value="S11" style="text;html=1;strokeColor=none;fillColor=none;align=center;verticalAlign=middle;whiteSpace=wrap;rounded=0;" parent="8siH3YI83ot3fPD8dc1V-33" vertex="1">
          <mxGeometry y="10" width="60" height="30" as="geometry" />
        </mxCell>
        <mxCell id="8siH3YI83ot3fPD8dc1V-37" value="0" style="text;html=1;strokeColor=none;fillColor=none;align=center;verticalAlign=middle;whiteSpace=wrap;rounded=0;" parent="8siH3YI83ot3fPD8dc1V-33" vertex="1">
          <mxGeometry x="10" y="50" width="40" height="20" as="geometry" />
        </mxCell>
        <mxCell id="8siH3YI83ot3fPD8dc1V-38" value="" style="group" parent="1" vertex="1" connectable="0">
          <mxGeometry x="410" y="365" width="60" height="80" as="geometry" />
        </mxCell>
        <mxCell id="8siH3YI83ot3fPD8dc1V-39" value="" style="ellipse;whiteSpace=wrap;html=1;" parent="8siH3YI83ot3fPD8dc1V-38" vertex="1">
          <mxGeometry width="60" height="80" as="geometry" />
        </mxCell>
        <mxCell id="8siH3YI83ot3fPD8dc1V-40" value="" style="endArrow=none;html=1;rounded=0;entryX=1;entryY=0.621;entryDx=0;entryDy=0;entryPerimeter=0;" parent="8siH3YI83ot3fPD8dc1V-38" target="8siH3YI83ot3fPD8dc1V-39" edge="1">
          <mxGeometry width="50" height="50" relative="1" as="geometry">
            <mxPoint y="50" as="sourcePoint" />
            <mxPoint x="60" y="52" as="targetPoint" />
          </mxGeometry>
        </mxCell>
        <mxCell id="8siH3YI83ot3fPD8dc1V-41" value="S111" style="text;html=1;strokeColor=none;fillColor=none;align=center;verticalAlign=middle;whiteSpace=wrap;rounded=0;" parent="8siH3YI83ot3fPD8dc1V-38" vertex="1">
          <mxGeometry y="10" width="60" height="30" as="geometry" />
        </mxCell>
        <mxCell id="8siH3YI83ot3fPD8dc1V-42" value="0" style="text;html=1;strokeColor=none;fillColor=none;align=center;verticalAlign=middle;whiteSpace=wrap;rounded=0;" parent="8siH3YI83ot3fPD8dc1V-38" vertex="1">
          <mxGeometry x="10" y="50" width="40" height="20" as="geometry" />
        </mxCell>
        <mxCell id="8siH3YI83ot3fPD8dc1V-43" value="" style="group" parent="1" vertex="1" connectable="0">
          <mxGeometry x="413" y="485" width="60" height="80" as="geometry" />
        </mxCell>
        <mxCell id="8siH3YI83ot3fPD8dc1V-44" value="" style="ellipse;whiteSpace=wrap;html=1;" parent="8siH3YI83ot3fPD8dc1V-43" vertex="1">
          <mxGeometry width="60" height="80" as="geometry" />
        </mxCell>
        <mxCell id="8siH3YI83ot3fPD8dc1V-45" value="" style="endArrow=none;html=1;rounded=0;entryX=1;entryY=0.621;entryDx=0;entryDy=0;entryPerimeter=0;" parent="8siH3YI83ot3fPD8dc1V-43" target="8siH3YI83ot3fPD8dc1V-44" edge="1">
          <mxGeometry width="50" height="50" relative="1" as="geometry">
            <mxPoint y="50" as="sourcePoint" />
            <mxPoint x="60" y="52" as="targetPoint" />
          </mxGeometry>
        </mxCell>
        <mxCell id="8siH3YI83ot3fPD8dc1V-46" value="S1111" style="text;html=1;strokeColor=none;fillColor=none;align=center;verticalAlign=middle;whiteSpace=wrap;rounded=0;" parent="8siH3YI83ot3fPD8dc1V-43" vertex="1">
          <mxGeometry y="10" width="60" height="30" as="geometry" />
        </mxCell>
        <mxCell id="8siH3YI83ot3fPD8dc1V-47" value="1" style="text;html=1;strokeColor=none;fillColor=none;align=center;verticalAlign=middle;whiteSpace=wrap;rounded=0;" parent="8siH3YI83ot3fPD8dc1V-43" vertex="1">
          <mxGeometry x="10" y="50" width="40" height="20" as="geometry" />
        </mxCell>
        <mxCell id="8siH3YI83ot3fPD8dc1V-59" value="" style="curved=1;endArrow=classic;html=1;rounded=0;entryX=1;entryY=1;entryDx=0;entryDy=0;exitX=0;exitY=1;exitDx=0;exitDy=0;" parent="8siH3YI83ot3fPD8dc1V-43" source="8siH3YI83ot3fPD8dc1V-44" target="8siH3YI83ot3fPD8dc1V-47" edge="1">
          <mxGeometry width="50" height="50" relative="1" as="geometry">
            <mxPoint x="17" y="80" as="sourcePoint" />
            <mxPoint x="40" y="110" as="targetPoint" />
            <Array as="points">
              <mxPoint x="-3" y="110" />
              <mxPoint x="30" y="120" />
              <mxPoint x="57" y="110" />
            </Array>
          </mxGeometry>
        </mxCell>
        <mxCell id="8siH3YI83ot3fPD8dc1V-51" value="" style="endArrow=classic;html=1;rounded=0;entryX=0.5;entryY=0;entryDx=0;entryDy=0;exitX=0.5;exitY=1;exitDx=0;exitDy=0;" parent="1" source="8siH3YI83ot3fPD8dc1V-8" target="8siH3YI83ot3fPD8dc1V-28" edge="1">
          <mxGeometry width="50" height="50" relative="1" as="geometry">
            <mxPoint x="290" y="155" as="sourcePoint" />
            <mxPoint x="340" y="105" as="targetPoint" />
          </mxGeometry>
        </mxCell>
        <mxCell id="8siH3YI83ot3fPD8dc1V-52" value="" style="endArrow=classic;html=1;rounded=0;" parent="1" edge="1">
          <mxGeometry width="50" height="50" relative="1" as="geometry">
            <mxPoint x="290" y="95" as="sourcePoint" />
            <mxPoint x="220" y="135" as="targetPoint" />
          </mxGeometry>
        </mxCell>
        <mxCell id="8siH3YI83ot3fPD8dc1V-53" value="" style="endArrow=classic;html=1;rounded=0;entryX=0.5;entryY=0;entryDx=0;entryDy=0;exitX=0.5;exitY=1;exitDx=0;exitDy=0;" parent="1" edge="1">
          <mxGeometry width="50" height="50" relative="1" as="geometry">
            <mxPoint x="439.65999999999997" y="205" as="sourcePoint" />
            <mxPoint x="439.65999999999997" y="245" as="targetPoint" />
          </mxGeometry>
        </mxCell>
        <mxCell id="8siH3YI83ot3fPD8dc1V-54" value="" style="endArrow=classic;html=1;rounded=0;entryX=0.5;entryY=0;entryDx=0;entryDy=0;exitX=0.5;exitY=1;exitDx=0;exitDy=0;" parent="1" edge="1">
          <mxGeometry width="50" height="50" relative="1" as="geometry">
            <mxPoint x="199.66" y="325" as="sourcePoint" />
            <mxPoint x="199.66" y="365" as="targetPoint" />
          </mxGeometry>
        </mxCell>
        <mxCell id="8siH3YI83ot3fPD8dc1V-55" value="" style="endArrow=classic;html=1;rounded=0;entryX=0.5;entryY=0;entryDx=0;entryDy=0;exitX=0.5;exitY=1;exitDx=0;exitDy=0;" parent="1" edge="1">
          <mxGeometry width="50" height="50" relative="1" as="geometry">
            <mxPoint x="439.65999999999997" y="325" as="sourcePoint" />
            <mxPoint x="439.65999999999997" y="365" as="targetPoint" />
          </mxGeometry>
        </mxCell>
        <mxCell id="8siH3YI83ot3fPD8dc1V-56" value="" style="endArrow=classic;html=1;rounded=0;entryX=0.5;entryY=0;entryDx=0;entryDy=0;exitX=0.5;exitY=1;exitDx=0;exitDy=0;" parent="1" edge="1">
          <mxGeometry width="50" height="50" relative="1" as="geometry">
            <mxPoint x="199.66" y="445" as="sourcePoint" />
            <mxPoint x="199.66" y="485" as="targetPoint" />
          </mxGeometry>
        </mxCell>
        <mxCell id="8siH3YI83ot3fPD8dc1V-57" value="" style="endArrow=classic;html=1;rounded=0;entryX=0.5;entryY=0;entryDx=0;entryDy=0;exitX=0.5;exitY=1;exitDx=0;exitDy=0;" parent="1" edge="1">
          <mxGeometry width="50" height="50" relative="1" as="geometry">
            <mxPoint x="442.65999999999997" y="445" as="sourcePoint" />
            <mxPoint x="442.65999999999997" y="485" as="targetPoint" />
          </mxGeometry>
        </mxCell>
        <mxCell id="8siH3YI83ot3fPD8dc1V-58" value="" style="endArrow=classic;html=1;rounded=0;" parent="1" edge="1">
          <mxGeometry width="50" height="50" relative="1" as="geometry">
            <mxPoint x="350" y="95" as="sourcePoint" />
            <mxPoint x="420" y="135" as="targetPoint" />
          </mxGeometry>
        </mxCell>
        <mxCell id="8siH3YI83ot3fPD8dc1V-62" value="" style="endArrow=classic;html=1;rounded=0;" parent="1" edge="1">
          <mxGeometry width="50" height="50" relative="1" as="geometry">
            <mxPoint x="225" y="145" as="sourcePoint" />
            <mxPoint x="414" y="145" as="targetPoint" />
          </mxGeometry>
        </mxCell>
        <object label="" placeholders="1" id="8siH3YI83ot3fPD8dc1V-63">
          <mxCell style="endArrow=classic;html=1;rounded=0;exitX=0;exitY=1;exitDx=0;exitDy=0;entryX=1;entryY=1;entryDx=0;entryDy=0;" parent="1" source="8siH3YI83ot3fPD8dc1V-15" target="8siH3YI83ot3fPD8dc1V-10" edge="1">
            <mxGeometry width="50" height="50" relative="1" as="geometry">
              <mxPoint x="410" y="175" as="sourcePoint" />
              <mxPoint x="230" y="175" as="targetPoint" />
            </mxGeometry>
          </mxCell>
        </object>
        <mxCell id="8siH3YI83ot3fPD8dc1V-65" value="" style="endArrow=classic;html=1;rounded=0;entryX=0.953;entryY=0.672;entryDx=0;entryDy=0;entryPerimeter=0;" parent="1" target="8siH3YI83ot3fPD8dc1V-8" edge="1">
          <mxGeometry width="50" height="50" relative="1" as="geometry">
            <mxPoint x="420" y="255" as="sourcePoint" />
            <mxPoint x="340" y="105" as="targetPoint" />
          </mxGeometry>
        </mxCell>
        <mxCell id="8siH3YI83ot3fPD8dc1V-66" value="" style="endArrow=classic;html=1;rounded=0;" parent="1" edge="1">
          <mxGeometry width="50" height="50" relative="1" as="geometry">
            <mxPoint x="420" y="375" as="sourcePoint" />
            <mxPoint x="230" y="185" as="targetPoint" />
          </mxGeometry>
        </mxCell>
        <mxCell id="8siH3YI83ot3fPD8dc1V-67" value="" style="endArrow=classic;html=1;rounded=0;exitX=0;exitY=0;exitDx=0;exitDy=0;entryX=0.934;entryY=0.776;entryDx=0;entryDy=0;entryPerimeter=0;" parent="1" source="8siH3YI83ot3fPD8dc1V-44" target="8siH3YI83ot3fPD8dc1V-8" edge="1">
          <mxGeometry width="50" height="50" relative="1" as="geometry">
            <mxPoint x="430" y="385" as="sourcePoint" />
            <mxPoint x="240" y="195" as="targetPoint" />
          </mxGeometry>
        </mxCell>
        <mxCell id="8siH3YI83ot3fPD8dc1V-68" value="" style="endArrow=classic;html=1;rounded=0;exitX=1;exitY=0;exitDx=0;exitDy=0;" parent="1" source="8siH3YI83ot3fPD8dc1V-28" edge="1">
          <mxGeometry width="50" height="50" relative="1" as="geometry">
            <mxPoint x="260" y="295" as="sourcePoint" />
            <mxPoint x="410" y="175" as="targetPoint" />
          </mxGeometry>
        </mxCell>
        <mxCell id="8siH3YI83ot3fPD8dc1V-69" value="" style="endArrow=classic;html=1;rounded=0;exitX=1;exitY=0;exitDx=0;exitDy=0;entryX=0.006;entryY=0.672;entryDx=0;entryDy=0;entryPerimeter=0;" parent="1" source="8siH3YI83ot3fPD8dc1V-23" target="8siH3YI83ot3fPD8dc1V-13" edge="1">
          <mxGeometry width="50" height="50" relative="1" as="geometry">
            <mxPoint x="231" y="267" as="sourcePoint" />
            <mxPoint x="410" y="175" as="targetPoint" />
          </mxGeometry>
        </mxCell>
        <mxCell id="8siH3YI83ot3fPD8dc1V-70" value="" style="endArrow=classic;html=1;rounded=0;entryX=0.052;entryY=0.734;entryDx=0;entryDy=0;entryPerimeter=0;" parent="1" target="8siH3YI83ot3fPD8dc1V-13" edge="1">
          <mxGeometry width="50" height="50" relative="1" as="geometry">
            <mxPoint x="220" y="495" as="sourcePoint" />
            <mxPoint x="420" y="189" as="targetPoint" />
          </mxGeometry>
        </mxCell>
        <mxCell id="8siH3YI83ot3fPD8dc1V-71" value="0" style="text;html=1;strokeColor=none;fillColor=none;align=center;verticalAlign=middle;whiteSpace=wrap;rounded=0;" parent="1" vertex="1">
          <mxGeometry x="190" y="212" width="10" height="20" as="geometry" />
        </mxCell>
        <mxCell id="8siH3YI83ot3fPD8dc1V-73" value="0" style="text;html=1;strokeColor=none;fillColor=none;align=center;verticalAlign=middle;whiteSpace=wrap;rounded=0;" parent="1" vertex="1">
          <mxGeometry x="190" y="332" width="10" height="20" as="geometry" />
        </mxCell>
        <mxCell id="8siH3YI83ot3fPD8dc1V-75" value="0" style="text;html=1;strokeColor=none;fillColor=none;align=center;verticalAlign=middle;whiteSpace=wrap;rounded=0;" parent="1" vertex="1">
          <mxGeometry x="189" y="449" width="10" height="20" as="geometry" />
        </mxCell>
        <mxCell id="8siH3YI83ot3fPD8dc1V-76" value="0" style="text;html=1;strokeColor=none;fillColor=none;align=center;verticalAlign=middle;whiteSpace=wrap;rounded=0;" parent="1" vertex="1">
          <mxGeometry x="195" y="586" width="10" height="20" as="geometry" />
        </mxCell>
        <mxCell id="8siH3YI83ot3fPD8dc1V-77" value="1" style="text;html=1;strokeColor=none;fillColor=none;align=center;verticalAlign=middle;whiteSpace=wrap;rounded=0;" parent="1" vertex="1">
          <mxGeometry x="436" y="584" width="10" height="20" as="geometry" />
        </mxCell>
        <mxCell id="8siH3YI83ot3fPD8dc1V-78" value="1" style="text;html=1;strokeColor=none;fillColor=none;align=center;verticalAlign=middle;whiteSpace=wrap;rounded=0;" parent="1" vertex="1">
          <mxGeometry x="446" y="451" width="10" height="20" as="geometry" />
        </mxCell>
        <mxCell id="8siH3YI83ot3fPD8dc1V-79" value="1" style="text;html=1;strokeColor=none;fillColor=none;align=center;verticalAlign=middle;whiteSpace=wrap;rounded=0;" parent="1" vertex="1">
          <mxGeometry x="443" y="331" width="10" height="20" as="geometry" />
        </mxCell>
        <mxCell id="8siH3YI83ot3fPD8dc1V-80" value="1" style="text;html=1;strokeColor=none;fillColor=none;align=center;verticalAlign=middle;whiteSpace=wrap;rounded=0;" parent="1" vertex="1">
          <mxGeometry x="442" y="212" width="10" height="15" as="geometry" />
        </mxCell>
        <mxCell id="8siH3YI83ot3fPD8dc1V-81" value="1" style="text;html=1;strokeColor=none;fillColor=none;align=center;verticalAlign=middle;whiteSpace=wrap;rounded=0;" parent="1" vertex="1">
          <mxGeometry x="370" y="91" width="10" height="20" as="geometry" />
        </mxCell>
        <mxCell id="8siH3YI83ot3fPD8dc1V-82" value="0" style="text;html=1;strokeColor=none;fillColor=none;align=center;verticalAlign=middle;whiteSpace=wrap;rounded=0;" parent="1" vertex="1">
          <mxGeometry x="253" y="95" width="10" height="20" as="geometry" />
        </mxCell>
        <mxCell id="8siH3YI83ot3fPD8dc1V-83" value="1" style="text;html=1;strokeColor=none;fillColor=none;align=center;verticalAlign=middle;whiteSpace=wrap;rounded=0;" parent="1" vertex="1">
          <mxGeometry x="315" y="129" width="10" height="20" as="geometry" />
        </mxCell>
        <mxCell id="8siH3YI83ot3fPD8dc1V-84" value="0" style="text;html=1;strokeColor=none;fillColor=none;align=center;verticalAlign=middle;whiteSpace=wrap;rounded=0;" parent="1" vertex="1">
          <mxGeometry x="290" y="149" width="10" height="20" as="geometry" />
        </mxCell>
        <mxCell id="8siH3YI83ot3fPD8dc1V-85" value="0" style="text;html=1;strokeColor=none;fillColor=none;align=center;verticalAlign=middle;whiteSpace=wrap;rounded=0;" parent="1" vertex="1">
          <mxGeometry x="280" y="185" width="10" height="20" as="geometry" />
        </mxCell>
        <mxCell id="8siH3YI83ot3fPD8dc1V-86" value="0" style="text;html=1;strokeColor=none;fillColor=none;align=center;verticalAlign=middle;whiteSpace=wrap;rounded=0;" parent="1" vertex="1">
          <mxGeometry x="297" y="238" width="10" height="20" as="geometry" />
        </mxCell>
        <mxCell id="8siH3YI83ot3fPD8dc1V-87" value="0" style="text;html=1;strokeColor=none;fillColor=none;align=center;verticalAlign=middle;whiteSpace=wrap;rounded=0;" parent="1" vertex="1">
          <mxGeometry x="338" y="352" width="10" height="20" as="geometry" />
        </mxCell>
        <mxCell id="8siH3YI83ot3fPD8dc1V-88" value="1" style="text;html=1;strokeColor=none;fillColor=none;align=center;verticalAlign=middle;whiteSpace=wrap;rounded=0;" parent="1" vertex="1">
          <mxGeometry x="338" y="187" width="10" height="20" as="geometry" />
        </mxCell>
        <mxCell id="8siH3YI83ot3fPD8dc1V-89" value="1" style="text;html=1;strokeColor=none;fillColor=none;align=center;verticalAlign=middle;whiteSpace=wrap;rounded=0;" parent="1" vertex="1">
          <mxGeometry x="330" y="239" width="10" height="20" as="geometry" />
        </mxCell>
        <mxCell id="8siH3YI83ot3fPD8dc1V-90" value="1" style="text;html=1;strokeColor=none;fillColor=none;align=center;verticalAlign=middle;whiteSpace=wrap;rounded=0;" parent="1" vertex="1">
          <mxGeometry x="278" y="372" width="10" height="20" as="geometry" />
        </mxCell>
      </root>
    </mxGraphModel>
  </diagram>
</mxfile>
